<?xml version="1.0" encoding="UTF-8"?>
<svg version="1.1" xmlns="http://www.w3.org/2000/svg" width="200" height="200">
<path d="M0 0 C2.97 0.495 2.97 0.495 6 1 C5.690625 1.7425 5.38125 2.485 5.0625 3.25 C4.1905075 5.50692176 3.52332993 7.6450153 3 10 C2.01 10 1.02 10 0 10 C-0.103125 10.78375 -0.20625 11.5675 -0.3125 12.375 C-1 15 -1 15 -4 17 C-3.67 18.65 -3.34 20.3 -3 22 C-3.66 22 -4.32 22 -5 22 C-5 22.66 -5 23.32 -5 24 C-5.66 24.33 -6.32 24.66 -7 25 C-7 25.66 -7 26.32 -7 27 C-6.34 27.66 -5.68 28.32 -5 29 C-6 31 -6 31 -7 32 C-7.23287008 33.68183948 -7.41264166 35.3712416 -7.5625 37.0625 C-7.64628906 37.98160156 -7.73007813 38.90070313 -7.81640625 39.84765625 C-7.87699219 40.55792969 -7.93757812 41.26820312 -8 42 C-7.360625 41.319375 -6.72125 40.63875 -6.0625 39.9375 C6.8659836 27.1179643 21.46155321 21.78130925 39.5 21.625 C54.09627215 21.76579539 68.58673802 24.54775243 79.5 34.9375 C87 43.078125 87 43.078125 87 48 C87.66 48 88.32 48 89 48 C89 48.99 89 49.98 89 51 C89.5775 51.226875 90.155 51.45375 90.75 51.6875 C95.49341349 54.4544912 97.82502624 59.10630904 100 64 C100 64.66 100 65.32 100 66 C100.66 66 101.32 66 102 66 C103.625 68 103.625 68 105 70 C113.22474983 59.57051685 121.37681254 49.08966147 129.41015625 38.51171875 C130.28728271 37.35893433 130.28728271 37.35893433 131.18212891 36.18286133 C132.33092576 34.67248905 133.47781337 33.1606622 134.62255859 31.6472168 C135.1480127 30.95668213 135.6734668 30.26614746 136.21484375 29.5546875 C136.68011475 28.94093262 137.14538574 28.32717773 137.62475586 27.69482422 C141.33581157 23.1213911 141.33581157 23.1213911 144.03710938 22.62768555 C145.17889648 22.63215698 145.17889648 22.63215698 146.34375 22.63671875 C147.17777344 22.63736328 148.01179687 22.63800781 148.87109375 22.63867188 C149.73863281 22.65478516 150.60617188 22.67089844 151.5 22.6875 C152.80130859 22.68266602 152.80130859 22.68266602 154.12890625 22.67773438 C160.59910409 22.73273606 160.59910409 22.73273606 164 25 C164.36076355 27.4803772 164.36076355 27.4803772 164.34057617 30.64306641 C164.34034958 31.82413971 164.34012299 33.00521301 164.33988953 34.22207642 C164.32440567 35.50230682 164.30892181 36.78253723 164.29296875 38.1015625 C164.28872391 39.40829926 164.28447906 40.71503601 164.28010559 42.06137085 C164.26864632 45.53691786 164.23917049 49.01208927 164.20599365 52.48748779 C164.17531569 56.0332735 164.16160516 59.57911985 164.14648438 63.125 C164.11430135 70.08348771 164.06309229 77.04172583 164 84 C164.85464844 83.98839844 165.70929688 83.97679688 166.58984375 83.96484375 C168.24693359 83.95130859 168.24693359 83.95130859 169.9375 83.9375 C171.03964844 83.92589844 172.14179688 83.91429688 173.27734375 83.90234375 C176 84 176 84 177 85 C177.09899523 86.54955559 177.13079524 88.10353673 177.1328125 89.65625 C177.13410156 90.59597656 177.13539063 91.53570312 177.13671875 92.50390625 C177.13285156 93.49261719 177.12898437 94.48132813 177.125 95.5 C177.12886719 96.48871094 177.13273438 97.47742188 177.13671875 98.49609375 C177.13478516 99.90568359 177.13478516 99.90568359 177.1328125 101.34375 C177.13168457 102.21193359 177.13055664 103.08011719 177.12939453 103.97460938 C177 106 177 106 176 107 C173.98035801 107.07244053 171.95832876 107.08377188 169.9375 107.0625 C168.83277344 107.05347656 167.72804687 107.04445313 166.58984375 107.03515625 C165.73519531 107.02355469 164.88054687 107.01195312 164 107 C164.02320313 108.20398438 164.04640625 109.40796875 164.0703125 110.6484375 C164.08906863 112.22395215 164.10726899 113.79947348 164.125 115.375 C164.14175781 116.1690625 164.15851563 116.963125 164.17578125 117.78125 C164.19335473 119.85492015 164.10335168 121.92883241 164 124 C161.43011319 126.56988681 160.41089947 126.25706775 156.84375 126.265625 C155.31041016 126.26949219 155.31041016 126.26949219 153.74609375 126.2734375 C152.67488281 126.26570313 151.60367188 126.25796875 150.5 126.25 C149.42878906 126.25773437 148.35757813 126.26546875 147.25390625 126.2734375 C146.23167969 126.27085937 145.20945313 126.26828125 144.15625 126.265625 C143.21587891 126.26336914 142.27550781 126.26111328 141.30664062 126.25878906 C139 126 139 126 137 124 C136.85482256 121.0906442 136.81369204 118.280054 136.875 115.375 C136.88402344 114.57320313 136.89304688 113.77140625 136.90234375 112.9453125 C136.92593777 110.96341477 136.96180935 108.98167019 137 107 C131.06 107.495 131.06 107.495 125 108 C125.33 108.99 125.66 109.98 126 111 C124.35 110.67 122.7 110.34 121 110 C120.67 109.01 120.34 108.02 120 107 C118.87972412 107.02356567 118.87972412 107.02356567 117.73681641 107.04760742 C114.36628739 107.10981077 110.99587888 107.1489442 107.625 107.1875 C106.449375 107.21263672 105.27375 107.23777344 104.0625 107.26367188 C102.38027344 107.27817383 102.38027344 107.27817383 100.6640625 107.29296875 C99.10872803 107.31653442 99.10872803 107.31653442 97.52197266 107.34057617 C96.68972168 107.22818604 95.8574707 107.1157959 95 107 C91.39477565 101.59216347 92.00919101 93.35310396 93 87 C94.29086841 84.13682386 95.62826431 82.11172614 97.6875 79.76171875 C99.39829099 77.83153689 99.39829099 77.83153689 99 74 C97.02577016 68.84506652 94.30258343 66.35601507 90 63 C89.01 61.64648438 89.01 61.64648438 88 60.265625 C84.54039617 57.65290336 83.92499126 57.75245439 79.8046875 58.23828125 C77.82328369 58.56851522 75.846525 58.92765627 73.875 59.3125 C71.89507805 59.67306494 69.91333296 60.0237983 67.9296875 60.36328125 C67.05554199 60.53126221 66.18139648 60.69924316 65.28076172 60.87231445 C63 61 63 61 60 59 C59.401875 57.88625 58.80375 56.7725 58.1875 55.625 C55.64207429 50.92575253 52.03113557 48.67704519 47 47 C37.20478631 46.32864266 28.15396688 45.86715594 20.234375 52.47265625 C14.37933106 58.48402418 12.86426923 65.88952255 12.6875 74.0625 C12.95154515 82.65496919 14.19810487 90.32563943 20 97 C27.65171594 103.13050005 35.3848618 103.79039568 44.9765625 103.25292969 C50.30359909 102.58705011 55.18287088 100.27452977 60 98 C60.33 95.69 60.66 93.38 61 91 C60.31373535 91.01571045 59.6274707 91.0314209 58.92041016 91.04760742 C55.82202337 91.10982719 52.72376776 91.14894898 49.625 91.1875 C48.54476562 91.21263672 47.46453125 91.23777344 46.3515625 91.26367188 C45.3203125 91.27333984 44.2890625 91.28300781 43.2265625 91.29296875 C42.27346191 91.3086792 41.32036133 91.32438965 40.33837891 91.34057617 C39.56671387 91.22818604 38.79504883 91.1157959 38 91 C35.43787713 87.15681569 35.66891461 83.95306045 35.6875 79.5 C35.67138672 78.72785156 35.65527344 77.95570312 35.63867188 77.16015625 C35.63384876 71.59427733 35.63384876 71.59427733 37.05761719 69.28344727 C40.01035118 67.33240119 43.01675272 67.55916029 46.44140625 67.55859375 C47.52662819 67.53878197 47.52662819 67.53878197 48.6337738 67.51856995 C50.94338863 67.47768533 53.25260516 67.45600223 55.5625 67.4375 C57.87584478 67.41373029 60.18881337 67.38565338 62.50193787 67.34571838 C63.94082016 67.32132069 65.37990254 67.30649517 66.81898499 67.30210876 C70.8575338 67.35087875 70.8575338 67.35087875 74 65 C74.33 65.99 74.66 66.98 75 68 C75.91523437 67.97679688 76.83046875 67.95359375 77.7734375 67.9296875 C78.96195312 67.91164063 80.15046875 67.89359375 81.375 67.875 C83.15003906 67.84019531 83.15003906 67.84019531 84.9609375 67.8046875 C88 68 88 68 90 70 C90.30107117 71.7946167 90.30107117 71.7946167 90.36987305 73.98730469 C90.41322029 75.21933624 90.41322029 75.21933624 90.45744324 76.47625732 C90.47535416 77.36581116 90.49326508 78.25536499 90.51171875 79.171875 C90.53023392 80.08704895 90.54874908 81.0022229 90.56782532 81.94512939 C90.59990243 83.88520114 90.62553408 85.8253884 90.64526367 87.765625 C90.67332523 89.74842575 90.72104776 91.73104971 90.78881836 93.71289062 C91.34918337 110.14295716 91.34918337 110.14295716 88.13012695 114.57373047 C85.78262941 116.16312856 83.68581308 117.12020889 81 118 C80.07832031 118.50789063 79.15664062 119.01578125 78.20703125 119.5390625 C53.08119574 130.93381335 30.61909882 129.38365858 5 121 C5 120.01 5 119.02 5 118 C4.1646875 117.62875 4.1646875 117.62875 3.3125 117.25 C-6.49904968 111.94645963 -11.19244798 102.55994948 -14.734375 92.3828125 C-15.92726486 88.98123938 -15.92726486 88.98123938 -17.640625 85.8671875 C-23.31911242 74.8551675 -22.61130713 64.12896049 -22 52 C-21.34 52 -20.68 52 -20 52 C-19.67 51.01 -19.34 50.02 -19 49 C-19.99 48.67 -20.98 48.34 -22 48 C-21.57576756 46.53775201 -21.13509755 45.08026588 -20.6875 43.625 C-20.32205078 42.40683594 -20.32205078 42.40683594 -19.94921875 41.1640625 C-19 39 -19 39 -16 37 C-16.33 36.67 -16.66 36.34 -17 36 C-16.52881356 29.63898305 -16.52881356 29.63898305 -14.5 27.1875 C-14.005 26.795625 -13.51 26.40375 -13 26 C-12.67 25.34 -12.34 24.68 -12 24 C-10.68 24 -9.36 24 -8 24 C-7.67 22.68 -7.34 21.36 -7 20 C-7.66 20 -8.32 20 -9 20 C-9 19.01 -9 18.02 -9 17 C-8.34 17 -7.68 17 -7 17 C-6.7525 16.2575 -6.505 15.515 -6.25 14.75 C-4.90634806 11.79396573 -3.31013315 10.23312872 -1 8 C-1 7.34 -1 6.68 -1 6 C-0.34 6 0.32 6 1 6 C0.67 4.02 0.34 2.04 0 0 Z M-19 47 C-19 47.66 -19 48.32 -19 49 C-18.01 49 -17.02 49 -16 49 C-16 48.34 -16 47.68 -16 47 C-16.99 47 -17.98 47 -19 47 Z M136 66 C133.86075669 68.52995502 131.92135871 71.2222975 129.9375 73.875 C129.36966797 74.62136719 128.80183594 75.36773437 128.21679688 76.13671875 C127.67990234 76.85214844 127.14300781 77.56757812 126.58984375 78.3046875 C126.09347412 78.96452637 125.59710449 79.62436523 125.08569336 80.30419922 C123.82027071 81.94513325 123.82027071 81.94513325 124 84 C128.29 84 132.58 84 137 84 C137 78.06 137 72.12 137 66 C136.67 66 136.34 66 136 66 Z " fill="#2D29F4" transform="translate(22,35)"/>
<path d="M0 0 C6.27 0 12.54 0 19 0 C19 19.8 19 39.6 19 60 C23.29 60 27.58 60 32 60 C32 65.61 32 71.22 32 77 C27.71 77 23.42 77 19 77 C19 83.27 19 89.54 19 96 C12.07 96 5.14 96 -2 96 C-2 89.73 -2 83.46 -2 77 C-16.19 77 -30.38 77 -45 77 C-45 56.98705964 -45 56.98705964 -41.34326172 52.89794922 C-40.81748535 52.39537598 -40.29170898 51.89280273 -39.75 51.375 C-38.64009386 50.15910461 -37.53342208 48.9402504 -36.4296875 47.71875 C-35.85959961 47.11289063 -35.28951172 46.50703125 -34.70214844 45.8828125 C-31.85090905 42.72894587 -29.38219107 39.30393446 -26.875 35.875 C-25.87509065 34.52891224 -24.87380736 33.18384389 -23.87109375 31.83984375 C-23.38882324 31.19257324 -22.90655273 30.54530273 -22.40966797 29.87841797 C-21.08896337 28.11854592 -19.75477422 26.37055098 -18.41015625 24.62890625 C-17.99983154 24.09692627 -17.58950684 23.56494629 -17.16674805 23.0168457 C-15.94316201 21.44477458 -14.7020643 19.88638514 -13.4609375 18.328125 C-11.16986797 15.36150691 -9.3405251 12.22772152 -7.56103516 8.93261719 C-5.39535324 5.68797547 -2.62006733 2.89017737 0 0 Z M-6 39 C-8.13924331 41.52995502 -10.07864129 44.2222975 -12.0625 46.875 C-12.63033203 47.62136719 -13.19816406 48.36773437 -13.78320312 49.13671875 C-14.32009766 49.85214844 -14.85699219 50.56757812 -15.41015625 51.3046875 C-15.90652588 51.96452637 -16.40289551 52.62436523 -16.91430664 53.30419922 C-18.17972929 54.94513325 -18.17972929 54.94513325 -18 57 C-13.71 57 -9.42 57 -5 57 C-5 51.06 -5 45.12 -5 39 C-5.33 39 -5.66 39 -6 39 Z " fill="#1F1C79" transform="translate(164,62)"/>
<path d="M0 0 C15.84 0 31.68 0 48 0 C48.185625 6.31125 48.37125 12.6225 48.5625 19.125 C48.68540405 22.09717529 48.68540405 22.09717529 48.81079102 25.12939453 C49.11347597 37.44959625 49.11347597 37.44959625 46.22680664 41.46899414 C43.85868917 43.10272912 41.7178877 44.07508274 39 45 C38.33508545 45.30744141 37.6701709 45.61488281 36.98510742 45.93164062 C35.11879423 46.79043193 33.24905174 47.50331575 31.3125 48.1875 C30.28394897 48.5580249 30.28394897 48.5580249 29.23461914 48.93603516 C13.38721522 54.4724855 -2.66588878 56.09142938 -18.984375 51.43359375 C-21.39863389 50.91424736 -23.59590415 50.94047431 -26.0625 51 C-29.15945057 51.0745131 -31.02075995 50.99308002 -34 50 C-34 49.01 -34 48.02 -34 47 C-34.556875 46.7525 -35.11375 46.505 -35.6875 46.25 C-45.7236517 40.82505313 -50.33259099 31.05611301 -54.25 20.78515625 C-55 18 -55 18 -54 15 C-53.505 15.70125 -53.01 16.4025 -52.5 17.125 C-47.40385496 22.9855668 -40.62581169 28.09354708 -33 30 C-27.97072998 30.31181474 -23.03580353 30.23885234 -18 30 C-18 30.66 -18 31.32 -18 32 C-6.34290323 36.7076737 5.88901179 36.4664341 17.546875 32.0703125 C19.73021059 31.11771066 21.86938421 30.0653079 24 29 C24.33 25.04 24.66 21.08 25 17 C16.75 17 8.5 17 0 17 C0 11.39 0 5.78 0 0 Z " fill="#221E7B" transform="translate(61,106)"/>
<path d="M0 0 C2.97 0.495 2.97 0.495 6 1 C5.690625 1.7425 5.38125 2.485 5.0625 3.25 C4.1905075 5.50692176 3.52332993 7.6450153 3 10 C2.01 10 1.02 10 0 10 C-0.103125 10.78375 -0.20625 11.5675 -0.3125 12.375 C-1 15 -1 15 -4 17 C-3.67 18.65 -3.34 20.3 -3 22 C-3.66 22 -4.32 22 -5 22 C-5 22.66 -5 23.32 -5 24 C-5.66 24.33 -6.32 24.66 -7 25 C-7 25.66 -7 26.32 -7 27 C-6.34 27.66 -5.68 28.32 -5 29 C-6 31 -6 31 -7 32 C-7.20971908 33.59910799 -7.3682067 35.20509246 -7.5 36.8125 C-7.76306511 39.99276926 -8.19813611 42.91541068 -9 46 C-9.80659424 55.67913092 -7.20070745 64.74716693 -0.96875 72.20703125 C1.07380696 74.06721705 2.60968858 74.77853291 5.1875 75.6875 C7.2265625 76.52734375 7.2265625 76.52734375 9 78 C10.29338056 81.45341407 11.09723437 84.90056798 11.92578125 88.4921875 C13.45052509 93.47116919 16.19236304 96.55601376 20 100 C15.44735439 103.03509707 11.33204321 102.75693578 6 102 C-5.04323857 98.1015703 -14.79958073 90.65738726 -20.09375 80.08984375 C-22.5889668 74.39109055 -22.45107007 69.06627048 -22.25 62.9375 C-22.23195313 61.88111328 -22.21390625 60.82472656 -22.1953125 59.73632812 C-22.14862013 57.1565745 -22.08315588 54.57879183 -22 52 C-21.34 52 -20.68 52 -20 52 C-19.67 51.01 -19.34 50.02 -19 49 C-19.99 48.67 -20.98 48.34 -22 48 C-21.57576756 46.53775201 -21.13509755 45.08026588 -20.6875 43.625 C-20.32205078 42.40683594 -20.32205078 42.40683594 -19.94921875 41.1640625 C-19 39 -19 39 -16 37 C-16.33 36.67 -16.66 36.34 -17 36 C-16.52881356 29.63898305 -16.52881356 29.63898305 -14.5 27.1875 C-14.005 26.795625 -13.51 26.40375 -13 26 C-12.67 25.34 -12.34 24.68 -12 24 C-10.68 24 -9.36 24 -8 24 C-7.67 22.68 -7.34 21.36 -7 20 C-7.66 20 -8.32 20 -9 20 C-9 19.01 -9 18.02 -9 17 C-8.34 17 -7.68 17 -7 17 C-6.7525 16.2575 -6.505 15.515 -6.25 14.75 C-4.90634806 11.79396573 -3.31013315 10.23312872 -1 8 C-1 7.34 -1 6.68 -1 6 C-0.34 6 0.32 6 1 6 C0.67 4.02 0.34 2.04 0 0 Z M-19 47 C-19 47.66 -19 48.32 -19 49 C-18.01 49 -17.02 49 -16 49 C-16 48.34 -16 47.68 -16 47 C-16.99 47 -17.98 47 -19 47 Z " fill="#89DD1A" transform="translate(22,35)"/>
<path d="M0 0 C0.74636719 -0.01224609 1.49273437 -0.02449219 2.26171875 -0.03710938 C7.55234557 -0.05115529 11.54777942 0.35359582 15.5625 4.125 C16.201875 4.805625 16.84125 5.48625 17.5 6.1875 C18.20125 6.661875 18.9025 7.13625 19.625 7.625 C21.94761814 9.56051512 22.47104664 11.38747206 23.5 14.1875 C24.7684375 13.9709375 24.7684375 13.9709375 26.0625 13.75 C32.28992186 12.73096733 38.19044585 11.9400665 44.5 12.1875 C44.5 13.1775 44.5 14.1675 44.5 15.1875 C41.06537307 15.74856489 37.6271202 16.28298247 34.1875 16.8125 C32.72280273 17.05226563 32.72280273 17.05226563 31.22851562 17.296875 C29.82182617 17.50957031 29.82182617 17.50957031 28.38671875 17.7265625 C27.09060669 17.93079834 27.09060669 17.93079834 25.76831055 18.13916016 C23.5 18.1875 23.5 18.1875 20.5 16.1875 C19.901875 15.07375 19.30375 13.96 18.6875 12.8125 C16.14207429 8.11325253 12.53113557 5.86454519 7.5 4.1875 C-2.29521369 3.51614266 -11.34603312 3.05465594 -19.265625 9.66015625 C-25.12066894 15.67152418 -26.63573077 23.07702255 -26.8125 31.25 C-26.54845485 39.84246919 -25.30189513 47.51313943 -19.5 54.1875 C-11.84828406 60.31800005 -4.1151382 60.97789568 5.4765625 60.44042969 C10.80359909 59.77455011 15.68287088 57.46202977 20.5 55.1875 C20.83 52.8775 21.16 50.5675 21.5 48.1875 C20.81373535 48.20321045 20.1274707 48.2189209 19.42041016 48.23510742 C16.32202337 48.29732719 13.22376776 48.33644898 10.125 48.375 C9.04476562 48.40013672 7.96453125 48.42527344 6.8515625 48.45117188 C5.3046875 48.46567383 5.3046875 48.46567383 3.7265625 48.48046875 C2.77346191 48.4961792 1.82036133 48.51188965 0.83837891 48.52807617 C-0.31911865 48.35949097 -0.31911865 48.35949097 -1.5 48.1875 C-4.06212287 44.34431569 -3.83108539 41.14056045 -3.8125 36.6875 C-3.82861328 35.91535156 -3.84472656 35.14320312 -3.86132812 34.34765625 C-3.86615124 28.78177733 -3.86615124 28.78177733 -2.44238281 26.47094727 C0.51035118 24.51990119 3.51675272 24.74666029 6.94140625 24.74609375 C8.02662819 24.72628197 8.02662819 24.72628197 9.1337738 24.70606995 C11.44338863 24.66518533 13.75260516 24.64350223 16.0625 24.625 C18.37584478 24.60123029 20.68881337 24.57315338 23.00193787 24.53321838 C24.44082016 24.50882069 25.87990254 24.49399517 27.31898499 24.48960876 C31.3575338 24.53837875 31.3575338 24.53837875 34.5 22.1875 C34.995 23.6725 34.995 23.6725 35.5 25.1875 C36.87285156 25.15269531 36.87285156 25.15269531 38.2734375 25.1171875 C39.46195312 25.09914063 40.65046875 25.08109375 41.875 25.0625 C43.65003906 25.02769531 43.65003906 25.02769531 45.4609375 24.9921875 C48.5 25.1875 48.5 25.1875 50.5 27.1875 C50.80107117 28.9821167 50.80107117 28.9821167 50.86987305 31.17480469 C50.89877121 31.99615906 50.92766937 32.81751343 50.95744324 33.66375732 C50.97535416 34.55331116 50.99326508 35.44286499 51.01171875 36.359375 C51.03023392 37.27454895 51.04874908 38.1897229 51.06782532 39.13262939 C51.09990243 41.07270114 51.12553408 43.0128884 51.14526367 44.953125 C51.17332523 46.93592575 51.22104776 48.91854971 51.28881836 50.90039062 C51.84918337 67.33045716 51.84918337 67.33045716 48.63012695 71.76123047 C46.28262941 73.35062856 44.18581308 74.30770889 41.5 75.1875 C40.57832031 75.69539063 39.65664062 76.20328125 38.70703125 76.7265625 C17.81188267 86.20266577 -4.64130083 88.49312929 -26.375 80.5 C-27.40625 80.066875 -28.4375 79.63375 -29.5 79.1875 C-29.5 78.8575 -29.5 78.5275 -29.5 78.1875 C-23.96095844 77.99314766 -19.84652201 78.56444868 -14.5 80.1875 C5.53549822 83.76526754 24.6453944 79.4145204 42.5 70.1875 C43.21462402 69.83977539 43.92924805 69.49205078 44.66552734 69.13378906 C47.59060278 66.03042183 47.10385156 62.41176289 47.109375 58.36328125 C47.12500488 57.59963257 47.14063477 56.83598389 47.15673828 56.04919434 C47.20929334 53.19977796 47.22759743 50.34981295 47.25 47.5 C47.3325 41.126875 47.415 34.75375 47.5 28.1875 C31.66 28.1875 15.82 28.1875 -0.5 28.1875 C-0.5 33.7975 -0.5 39.4075 -0.5 45.1875 C7.75 45.1875 16 45.1875 24.5 45.1875 C24.5 49.1475 24.5 53.1075 24.5 57.1875 C13.35246637 64.21529294 1.51411135 65.94763675 -11.43359375 63.671875 C-18.92973224 61.28620846 -23.44644304 55.71252945 -27.5 49.1875 C-32.14613479 39.19978987 -32.26531413 25.72894974 -28.60546875 15.40234375 C-25.26405637 8.70771188 -20.20456105 4.29146345 -13.5 1.1875 C-9.02328115 -0.01591905 -4.602018 0.00397411 0 0 Z " fill="#C5A5F7" transform="translate(61.5,77.8125)"/>
<path d="M0 0 C0.43570312 0.37511719 0.87140625 0.75023438 1.3203125 1.13671875 C2.56992629 2.21052107 3.82275371 3.28059066 5.078125 4.34765625 C6.7025935 5.74430295 8.29293035 7.18050163 9.875 8.625 C18.61005197 15.26363949 26.31219123 15.50693164 37 15 C37 15.66 37 16.32 37 17 C47.60642739 21.28336491 60.13235229 21.62254924 71 18 C68.17245012 23.20269177 64.96454844 27.97180044 61.48828125 32.765625 C59.84931846 35.01416454 59.84931846 35.01416454 59 38 C60.65 38 62.3 38 64 38 C64 38.33 64 38.66 64 39 C54.37580024 39.23378623 45.3537873 39.09901409 36.015625 36.43359375 C33.60136611 35.91424736 31.40409585 35.94047431 28.9375 36 C25.84054943 36.0745131 23.97924005 35.99308002 21 35 C21 34.01 21 33.02 21 32 C20.443125 31.7525 19.88625 31.505 19.3125 31.25 C8.56934687 25.4428902 3.42642663 14.25825892 0 3 C0 2.01 0 1.02 0 0 Z " fill="#4544BF" transform="translate(6,121)"/>
<path d="M0 0 C1.25103516 0.0009668 1.25103516 0.0009668 2.52734375 0.00195312 C3.39488281 0.01806641 4.26242188 0.03417969 5.15625 0.05078125 C6.45755859 0.04594727 6.45755859 0.04594727 7.78515625 0.04101562 C14.25535409 0.09601731 14.25535409 0.09601731 17.65625 2.36328125 C18.01701355 4.84365845 18.01701355 4.84365845 17.99682617 8.00634766 C17.99659958 9.18742096 17.99637299 10.36849426 17.99613953 11.58535767 C17.98065567 12.86558807 17.96517181 14.14581848 17.94921875 15.46484375 C17.94497391 16.77158051 17.94072906 18.07831726 17.93635559 19.4246521 C17.92489632 22.90019911 17.89542049 26.37537052 17.86224365 29.85076904 C17.83156569 33.39655475 17.81785516 36.9424011 17.80273438 40.48828125 C17.77055135 47.44676896 17.71934229 54.40500708 17.65625 61.36328125 C18.93822266 61.34587891 18.93822266 61.34587891 20.24609375 61.328125 C21.35082031 61.31910156 22.45554687 61.31007812 23.59375 61.30078125 C24.69589844 61.28917969 25.79804688 61.27757812 26.93359375 61.265625 C29.65625 61.36328125 29.65625 61.36328125 30.65625 62.36328125 C30.75524523 63.91283684 30.78704524 65.46681798 30.7890625 67.01953125 C30.79035156 67.95925781 30.79164063 68.89898437 30.79296875 69.8671875 C30.78910156 70.85589844 30.78523438 71.84460938 30.78125 72.86328125 C30.78511719 73.85199219 30.78898437 74.84070313 30.79296875 75.859375 C30.79167969 76.79910156 30.79039062 77.73882812 30.7890625 78.70703125 C30.78793457 79.57521484 30.78680664 80.44339844 30.78564453 81.33789062 C30.65625 83.36328125 30.65625 83.36328125 29.65625 84.36328125 C27.63660801 84.43572178 25.61457876 84.44705313 23.59375 84.42578125 C22.48902344 84.41675781 21.38429688 84.40773438 20.24609375 84.3984375 C19.39144531 84.38683594 18.53679687 84.37523437 17.65625 84.36328125 C17.67945313 85.56726563 17.70265625 86.77125 17.7265625 88.01171875 C17.74531863 89.5872334 17.76351899 91.16275473 17.78125 92.73828125 C17.79800781 93.53234375 17.81476563 94.32640625 17.83203125 95.14453125 C17.84960473 97.2182014 17.75960168 99.29211366 17.65625 101.36328125 C15.08636319 103.93316806 14.06714947 103.620349 10.5 103.62890625 C8.96666016 103.63277344 8.96666016 103.63277344 7.40234375 103.63671875 C6.33113281 103.62898438 5.25992188 103.62125 4.15625 103.61328125 C2.54943359 103.62488281 2.54943359 103.62488281 0.91015625 103.63671875 C-0.11207031 103.63414062 -1.13429687 103.6315625 -2.1875 103.62890625 C-3.59805664 103.62552246 -3.59805664 103.62552246 -5.03710938 103.62207031 C-7.34375 103.36328125 -7.34375 103.36328125 -9.34375 101.36328125 C-9.48892744 98.45392545 -9.53005796 95.64333525 -9.46875 92.73828125 C-9.45972656 91.93648438 -9.45070312 91.1346875 -9.44140625 90.30859375 C-9.41781223 88.32669602 -9.38194065 86.34495144 -9.34375 84.36328125 C-15.28375 84.85828125 -15.28375 84.85828125 -21.34375 85.36328125 C-21.01375 86.35328125 -20.68375 87.34328125 -20.34375 88.36328125 C-21.99375 88.03328125 -23.64375 87.70328125 -25.34375 87.36328125 C-25.67375 86.37328125 -26.00375 85.38328125 -26.34375 84.36328125 C-27.46402588 84.38684692 -27.46402588 84.38684692 -28.60693359 84.41088867 C-31.97746261 84.47309202 -35.34787112 84.51222545 -38.71875 84.55078125 C-39.894375 84.57591797 -41.07 84.60105469 -42.28125 84.62695312 C-43.96347656 84.64145508 -43.96347656 84.64145508 -45.6796875 84.65625 C-47.23502197 84.67981567 -47.23502197 84.67981567 -48.82177734 84.70385742 C-49.65402832 84.59146729 -50.4862793 84.47907715 -51.34375 84.36328125 C-54.96730724 78.92794539 -54.29523312 70.74327436 -53.34375 64.36328125 C-51.86965911 60.77338167 -50.02673784 58.14418836 -47.34375 55.36328125 C-46.82425781 54.79351562 -46.30476563 54.22375 -45.76953125 53.63671875 C-44.34375 52.36328125 -44.34375 52.36328125 -42.34375 52.36328125 C-42.28058594 51.67234375 -42.21742187 50.98140625 -42.15234375 50.26953125 C-41.08516738 46.43388286 -38.90109393 43.87013615 -36.40625 40.86328125 C-35.3938755 39.60990437 -34.38217026 38.35598667 -33.37109375 37.1015625 C-32.86046387 36.47330566 -32.34983398 35.84504883 -31.82373047 35.19775391 C-29.65994682 32.51569018 -27.56442214 29.7865109 -25.46875 27.05078125 C-24.66566406 26.00535156 -23.86257812 24.95992187 -23.03515625 23.8828125 C-20.99456195 21.21863864 -18.96322836 18.54753081 -16.93359375 15.875 C-16.34884277 15.10647705 -15.7640918 14.3379541 -15.16162109 13.54614258 C-14.01282424 12.0357703 -12.86593663 10.52394345 -11.72119141 9.01049805 C-11.1957373 8.31996338 -10.6702832 7.62942871 -10.12890625 6.91796875 C-9.66363525 6.30421387 -9.19836426 5.69045898 -8.71899414 5.05810547 C-4.60003936 -0.01801455 -4.60003936 -0.01801455 0 0 Z M-4.34375 4.36328125 C-7.96385837 8.02921377 -9.90875841 10.23206741 -12.25976562 14.50683594 C-14.22645962 17.87502087 -16.65852507 20.89972376 -19.03125 23.98828125 C-20.05414686 25.35099127 -21.07626541 26.71428581 -22.09765625 28.078125 C-24.92374936 31.82345575 -27.78725385 35.53838467 -30.6706543 39.23974609 C-31.86620032 40.77634333 -33.0565095 42.3170299 -34.24145508 43.86181641 C-37.26315839 47.78550175 -40.32053255 51.56168426 -43.77246094 55.11645508 C-51.86041995 64.88508215 -49.34375 66.11696483 -49.34375 81.36328125 C-35.15375 81.36328125 -20.96375 81.36328125 -6.34375 81.36328125 C-6.34375 87.63328125 -6.34375 93.90328125 -6.34375 100.36328125 C0.58625 100.36328125 7.51625 100.36328125 14.65625 100.36328125 C14.65625 94.09328125 14.65625 87.82328125 14.65625 81.36328125 C18.94625 81.36328125 23.23625 81.36328125 27.65625 81.36328125 C27.65625 75.75328125 27.65625 70.14328125 27.65625 64.36328125 C23.36625 64.36328125 19.07625 64.36328125 14.65625 64.36328125 C14.65625 44.56328125 14.65625 24.76328125 14.65625 4.36328125 C8.38625 4.36328125 2.11625 4.36328125 -4.34375 4.36328125 Z " fill="#C3A3F7" transform="translate(168.34375,57.63671875)"/>
<path d="M0 0 C4.97059428 2.51907788 8.91773343 5.24817237 12 10 C12 10.66 12 11.32 12 12 C11.34773438 12.27972656 10.69546875 12.55945313 10.0234375 12.84765625 C3.12343043 16.01270374 -1.85838222 19.14341795 -4.9921875 26.25 C-7.16052375 32.6930563 -7.66335868 39.24395695 -8 46 C-14.23709309 45.07084401 -17.48200983 41.89891689 -21.5234375 37.24609375 C-25.51163552 31.72486007 -26.73916424 25.75043968 -26 19 C-24.54129861 15.47070749 -22.52828698 12.83954478 -20 10 C-19.43410156 9.3503125 -18.86820313 8.700625 -18.28515625 8.03125 C-13.26184789 2.65482926 -7.73063397 -2.68205668 0 0 Z " fill="#1F1C78" transform="translate(39,67)"/>
<path d="M0 0 C0.68441162 0.1652417 1.36882324 0.3304834 2.07397461 0.50073242 C3.97265625 1.01953125 3.97265625 1.01953125 6.9375 2.1875 C7.4325 3.6725 7.4325 3.6725 7.9375 5.1875 C6.9784375 6.115625 6.9784375 6.115625 6 7.0625 C3.89866416 9.01347612 3.89866416 9.01347612 2.9375 11.1875 C4.2575 10.8575 5.5775 10.5275 6.9375 10.1875 C6.9375 10.8475 6.9375 11.5075 6.9375 12.1875 C5.9475 12.1875 4.9575 12.1875 3.9375 12.1875 C3.9375 13.1775 3.9375 14.1675 3.9375 15.1875 C3.2775 15.1875 2.6175 15.1875 1.9375 15.1875 C1.9375 15.8475 1.9375 16.5075 1.9375 17.1875 C2.5975 17.1875 3.2575 17.1875 3.9375 17.1875 C3.9375 18.8375 3.9375 20.4875 3.9375 22.1875 C6.2475 22.8475 8.5575 23.5075 10.9375 24.1875 C10.9375 23.1975 10.9375 22.2075 10.9375 21.1875 C11.9275 21.5175 12.9175 21.8475 13.9375 22.1875 C13.9375 23.5075 13.9375 24.8275 13.9375 26.1875 C13.2775 26.1875 12.6175 26.1875 11.9375 26.1875 C11.9375 26.8475 11.9375 27.5075 11.9375 28.1875 C7.1547384 28.07288044 3.91286585 27.98946748 0.125 24.875 C-0.596875 23.988125 -1.31875 23.10125 -2.0625 22.1875 C-4.73113445 19.27626242 -6.1832898 17.87814361 -10.0625 17.1875 C-11.53168127 17.17489838 -13.00197396 17.21580787 -14.46875 17.30078125 C-15.29503906 17.33107422 -16.12132813 17.36136719 -16.97265625 17.39257812 C-18.70013752 17.46423082 -20.42691849 17.55541144 -22.15234375 17.66601562 C-24.58687251 17.73627894 -26.6874256 17.73495736 -29.0625 17.1875 C-31.41015625 14.33984375 -31.41015625 14.33984375 -33.0625 11.1875 C-34.95469345 9.54936487 -34.95469345 9.54936487 -37 8.4375 C-37.68964844 8.03660156 -38.37929688 7.63570312 -39.08984375 7.22265625 C-41.3589562 6.03193388 -43.63847602 5.02075824 -46.0625 4.1875 C-43.50284196 2.48106131 -41.66985502 1.5791168 -38.8125 0.625 C-38.08546875 0.37621094 -37.3584375 0.12742188 -36.609375 -0.12890625 C-24.89736999 -3.27246588 -11.70767933 -2.8804714 0 0 Z " fill="#2D29F6" transform="translate(80.0625,61.8125)"/>
<path d="M0 0 C2.45993639 1.13535526 4.57178711 2.39389779 6.8125 3.9375 C15.27640824 9.41414651 22.20763342 9.34027529 32 9 C32 9.66 32 10.32 32 11 C32.94875 11.309375 33.8975 11.61875 34.875 11.9375 C38 13 38 13 40 14 C40 14.66 40 15.32 40 16 C39.01 16.495 39.01 16.495 38 17 C37.505 18.1446875 37.505 18.1446875 37 19.3125 C33.9204826 23.4506015 29.88159809 24.67214392 25 26 C19.594355 26.33095786 16.18793397 23.32756327 12.17578125 20.0234375 C6.63974748 14.87502549 3.07209953 8.8531451 0 2 C0 1.34 0 0.68 0 0 Z " fill="#211E79" transform="translate(11,127)"/>
<path d="M0 0 C5.72161858 4.53039635 9.14041213 9.32762831 12 16 C10.35 16.33 8.7 16.66 7 17 C7.103125 16.278125 7.20625 15.55625 7.3125 14.8125 C6.85987066 10.7388359 5.09028497 9.63961841 2 7 C1.41863281 6.50242187 0.83726563 6.00484375 0.23828125 5.4921875 C-12.51013339 -4.79963609 -28.2158905 -6.08091356 -44 -5 C-57.82721328 -3.23716803 -68.54070013 1.63052694 -78 12 C-80.25030282 15.2185606 -82.20659649 18.50796633 -84 22 C-85.19884913 18.40345262 -84.94148593 16.65168572 -84 13 C-75.56868938 0.31381867 -62.63492336 -5.58611548 -48.17578125 -8.5859375 C-31.60298803 -10.74671989 -14.30453614 -9.18392683 0 0 Z " fill="#C3A3F7" transform="translate(97,66)"/>
<path d="M0 0 C-3.37761908 1.12587303 -5.56270664 0.75352077 -9 0 C-10.87334014 -0.08920667 -12.74954421 -0.13016654 -14.625 -0.125 C-15.56601563 -0.12757812 -16.50703125 -0.13015625 -17.4765625 -0.1328125 C-20.12677507 -0.10547998 -20.12677507 -0.10547998 -23 1 C-23 0.01 -23 -0.98 -23 -2 C-23.99 -1.67 -24.98 -1.34 -26 -1 C-25.67 0.98 -25.34 2.96 -25 5 C-26.98 5.99 -26.98 5.99 -29 7 C-28.54625 7.45375 -28.0925 7.9075 -27.625 8.375 C-26.41666667 9.58333333 -25.20833333 10.79166667 -24 12 C-24 12.33 -24 12.66 -24 13 C-22.700625 12.95875 -21.40125 12.9175 -20.0625 12.875 C-15.16408698 12.85944948 -10.71823189 13.7507282 -6 15 C-6 16.32 -6 17.64 -6 19 C-5.34 19 -4.68 19 -4 19 C-3.67 18.34 -3.34 17.68 -3 17 C-3 18.65 -3 20.3 -3 22 C-6.65316671 20.75023244 -7.78065836 20.32901247 -10 17 C-12.85647375 15.92731417 -15.38759779 15.93840447 -18.40625 16.11328125 C-19.23253906 16.14357422 -20.05882813 16.17386719 -20.91015625 16.20507812 C-22.63763752 16.27673082 -24.36441849 16.36791144 -26.08984375 16.47851562 C-28.52437251 16.54877894 -30.6249256 16.54745736 -33 16 C-35.34765625 13.15234375 -35.34765625 13.15234375 -37 10 C-38.89219345 8.36186487 -38.89219345 8.36186487 -40.9375 7.25 C-41.62714844 6.84910156 -42.31679688 6.44820312 -43.02734375 6.03515625 C-45.2964562 4.84443388 -47.57597602 3.83325824 -50 3 C-47.44034196 1.29356131 -45.60735502 0.3916168 -42.75 -0.5625 C-42.02296875 -0.81128906 -41.2959375 -1.06007812 -40.546875 -1.31640625 C-27.40350604 -4.84415099 -12.91560528 -3.83360722 0 0 Z " fill="#302DF1" transform="translate(84,63)"/>
<path d="M0 0 C0.99 0 1.98 0 3 0 C3 0.99 3 1.98 3 3 C2.34 3 1.68 3 1 3 C1 3.66 1 4.32 1 5 C1.99 5 2.98 5 4 5 C4 5.66 4 6.32 4 7 C4.99 7 5.98 7 7 7 C7 7.99 7 8.98 7 10 C9.46800047 8.84826645 11.04783565 7.95216435 13 6 C13 6.99 13 7.98 13 9 C13.5775 9.226875 14.155 9.45375 14.75 9.6875 C19.49341349 12.4544912 21.82502624 17.10630904 24 22 C24 22.66 24 23.32 24 24 C24.66 24 25.32 24 26 24 C27.5625 26.8125 27.5625 26.8125 29 30 C28.505 31.485 28.505 31.485 28 33 C27.01 33.33 26.02 33.66 25 34 C24.70867187 33.48050781 24.41734375 32.96101563 24.1171875 32.42578125 C21.28066824 27.60013057 18.41934832 24.5174405 14 21 C13.02813324 19.73948616 12.07013919 18.46817641 11.125 17.1875 C8.73145292 14.35708443 8.3168984 14.05003659 4.4375 13.4375 C2.95271539 13.5735329 1.47325279 13.77061714 0 14 C-1.68416016 14.23396484 -1.68416016 14.23396484 -3.40234375 14.47265625 C-6.60943695 14.94275134 -9.80498805 15.45451016 -13 16 C-13.66 14.68 -14.32 13.36 -15 12 C-12.03 12.33 -9.06 12.66 -6 13 C-6 12.34 -6 11.68 -6 11 C-2.535 10.505 -2.535 10.505 1 10 C1 9.01 1 8.02 1 7 C0.01 6.34 -0.98 5.68 -2 5 C-2 4.34 -2 3.68 -2 3 C-1.34 3 -0.68 3 0 3 C0 2.01 0 1.02 0 0 Z " fill="#3A33F2" transform="translate(98,77)"/>
<path d="M0 0 C0.33 0 0.66 0 1 0 C1 9.9 1 19.8 1 30 C-6.59 30 -14.18 30 -22 30 C-17.39921412 23.09882118 -12.71293259 16.50851604 -7.6875 9.9375 C-6.95982422 8.97650391 -6.23214844 8.01550781 -5.48242188 7.02539062 C-4.44504883 5.66510742 -4.44504883 5.66510742 -3.38671875 4.27734375 C-2.75983154 3.45484131 -2.13294434 2.63233887 -1.48706055 1.78491211 C-0.99633057 1.19589111 -0.50560059 0.60687012 0 0 Z M-3 9 C-5.13924331 11.52995502 -7.07864129 14.2222975 -9.0625 16.875 C-9.63033203 17.62136719 -10.19816406 18.36773437 -10.78320312 19.13671875 C-11.32009766 19.85214844 -11.85699219 20.56757812 -12.41015625 21.3046875 C-12.90652588 21.96452637 -13.40289551 22.62436523 -13.91430664 23.30419922 C-15.17972929 24.94513325 -15.17972929 24.94513325 -15 27 C-10.71 27 -6.42 27 -2 27 C-2 21.06 -2 15.12 -2 9 C-2.33 9 -2.66 9 -3 9 Z " fill="#C4A3F7" transform="translate(161,92)"/>
<path d="M0 0 C2.72943537 -0.05416741 5.45778564 -0.09375225 8.1875 -0.125 C9.34088867 -0.15013672 9.34088867 -0.15013672 10.51757812 -0.17578125 C15.91483608 -0.22210964 19.95840979 0.08214253 24.0625 3.9375 C24.701875 4.618125 25.34125 5.29875 26 6 C26.70125 6.474375 27.4025 6.94875 28.125 7.4375 C30.44761814 9.37301512 30.97104664 11.19997206 32 14 C33.2684375 13.7834375 33.2684375 13.7834375 34.5625 13.5625 C40.78992186 12.54346733 46.69044585 11.7525665 53 12 C53 12.99 53 13.98 53 15 C49.56537307 15.56106489 46.1271202 16.09548247 42.6875 16.625 C41.22280273 16.86476563 41.22280273 16.86476563 39.72851562 17.109375 C38.32182617 17.32207031 38.32182617 17.32207031 36.88671875 17.5390625 C35.59060669 17.74329834 35.59060669 17.74329834 34.26831055 17.95166016 C32 18 32 18 29 16 C28.401875 14.88625 27.80375 13.7725 27.1875 12.625 C24.64207429 7.92575253 21.03113557 5.67704519 16 4 C16 3.01 16 2.02 16 1 C10.72 1 5.44 1 0 1 C0 0.67 0 0.34 0 0 Z " fill="#BFA0F9" transform="translate(53,78)"/>
<path d="M0 0 C4.00288613 3.62654641 6.20272786 6.97672246 8.4375 11.875 C12.59383388 20.59401958 17.07869636 25.61351353 25 31 C25 31.33 25 31.66 25 32 C22.09283662 32.42543854 19.88979526 32.511937 17.2890625 31.015625 C8.3368484 23.80524441 3.29681627 13.83239631 0 3 C0 2.01 0 1.02 0 0 Z " fill="#C1A2F3" transform="translate(6,121)"/>
<path d="M0 0 C0.66 0 1.32 0 2 0 C2.33 0.99 2.66 1.98 3 3 C4.75331123 3.9740618 6.50799679 4.94600445 8.27734375 5.890625 C10.74390533 7.47906828 11.81787068 9.35759328 13 12 C13 12.66 13 13.32 13 14 C13.66 14 14.32 14 15 14 C16.5625 16.8125 16.5625 16.8125 18 20 C17.67 20.99 17.34 21.98 17 23 C16.01 23.33 15.02 23.66 14 24 C13.70867187 23.48050781 13.41734375 22.96101563 13.1171875 22.42578125 C10.27299212 17.58707149 7.50278218 14.35090767 3 11 C3.33 10.01 3.66 9.02 4 8 C4.66 8.33 5.32 8.66 6 9 C5.566875 8.51789063 5.13375 8.03578125 4.6875 7.5390625 C4.130625 6.90742187 3.57375 6.27578125 3 5.625 C2.443125 4.99851562 1.88625 4.37203125 1.3125 3.7265625 C0 2 0 2 0 0 Z " fill="#6662F0" transform="translate(109,87)"/>
<path d="M0 0 C5.13217903 2.25315177 8.9096916 5.26063522 13 9 C12.34 9.66 11.68 10.32 11 11 C10.67 10.34 10.34 9.68 10 9 C9.67 9.66 9.34 10.32 9 11 C8.01 11 7.02 11 6 11 C6.33 12.32 6.66 13.64 7 15 C5.68 14.34 4.36 13.68 3 13 C3 12.34 3 11.68 3 11 C3.66 11 4.32 11 5 11 C5 10.01 5 9.02 5 8 C4.01 8 3.02 8 2 8 C2 8.66 2 9.32 2 10 C1.01 9.67 0.02 9.34 -1 9 C-1 8.34 -1 7.68 -1 7 C-2.32 7.33 -3.64 7.66 -5 8 C-4.1875 5.5625 -4.1875 5.5625 -3 3 C-2.01 2.67 -1.02 2.34 0 2 C0 1.34 0 0.68 0 0 Z " fill="#4640D9" transform="translate(88,65)"/>
<path d="M0 0 C1.671549 -0.30791692 3.33805547 -0.64386903 5 -1 C6.9996441 -1.03772913 9.00054061 -1.04649906 11 -1 C11.66 0.65 12.32 2.3 13 4 C10.69 4 8.38 4 6 4 C6 3.34 6 2.68 6 2 C5.34 2 4.68 2 4 2 C4 2.66 4 3.32 4 4 C2.824375 3.835 1.64875 3.67 0.4375 3.5 C-3.41273873 3.01271488 -7.12258073 2.91922043 -11 3 C-11.33 2.01 -11.66 1.02 -12 0 C-4.22672065 -1.1659919 -4.22672065 -1.1659919 0 0 Z " fill="#4544C3" transform="translate(14,154)"/>
<path d="M0 0 C1.32 0 2.64 0 4 0 C3.67 1.65 3.34 3.3 3 5 C3.99 4.67 4.98 4.34 6 4 C6.66 4.66 7.32 5.32 8 6 C6.68 6.33 5.36 6.66 4 7 C4 7.99 4 8.98 4 10 C10.93 10 17.86 10 25 10 C25 10.33 25 10.66 25 11 C10.81 11 -3.38 11 -18 11 C-18 10.67 -18 10.34 -18 10 C-11.73 10 -5.46 10 1 10 C1 9.01 1 8.02 1 7 C0.01 6.67 -0.98 6.34 -2 6 C-1.34 5.34 -0.68 4.68 0 4 C0 2.68 0 1.36 0 0 Z " fill="#3A3393" transform="translate(137,128)"/>
<path d="M0 0 C0.4125 0.66 0.825 1.32 1.25 2 C1.8275 2.66 2.405 3.32 3 4 C4.32 4 5.64 4 7 4 C7.66 4.33 8.32 4.66 9 5 C9 5.66 9 6.32 9 7 C10.32 7.66 11.64 8.32 13 9 C13 9.33 13 9.66 13 10 C20.26 10.33 27.52 10.66 35 11 C35 11.33 35 11.66 35 12 C27.08 12 19.16 12 11 12 C11 11.34 11 10.68 11 10 C10.34 10 9.68 10 9 10 C8.67 9.34 8.34 8.68 8 8 C7.34 8 6.68 8 6 8 C6 8.99 6 9.98 6 11 C5.34 11 4.68 11 4 11 C3.566875 10.071875 3.13375 9.14375 2.6875 8.1875 C1.27961373 5.52815927 0.23876444 3.91894095 -2 2 C-1.34 1.34 -0.68 0.68 0 0 Z " fill="#2E2998" transform="translate(127,111)"/>
<path d="M0 0 C0.33 0.99 0.66 1.98 1 3 C1.8971875 3.4021875 1.8971875 3.4021875 2.8125 3.8125 C5.93576046 5.50798425 7.18267347 8.01439213 9 11 C6.0280615 9.87548273 3.66559313 8.77706209 1 7 C1 6.01 1 5.02 1 4 C0.34 4 -0.32 4 -1 4 C0.41154766 7.41124018 2.06221223 8.8456223 5 11 C5 11.66 5 12.32 5 13 C-0.03985731 12.55530671 -2.37634988 10.28656638 -6 7 C-5 4 -5 4 -3 2.9375 C-2.34 2.628125 -1.68 2.31875 -1 2 C-0.67 1.34 -0.34 0.68 0 0 Z " fill="#686EF1" transform="translate(110,83)"/>
<path d="M0 0 C2.64 1.65 5.28 3.3 8 5 C7.67 6.65 7.34 8.3 7 10 C7.66 10 8.32 10 9 10 C9.33 9.34 9.66 8.68 10 8 C10.99 8.66 11.98 9.32 13 10 C12.34 11.32 11.68 12.64 11 14 C10.01 14 9.02 14 8 14 C8 13.01 8 12.02 8 11 C7.01 11 6.02 11 5 11 C5 10.34 5 9.68 5 9 C4.01 9 3.02 9 2 9 C2 8.34 2 7.68 2 7 C2.66 7 3.32 7 4 7 C4 6.01 4 5.02 4 4 C3.01 4 2.02 4 1 4 C1 4.99 1 5.98 1 7 C0.34 7 -0.32 7 -1 7 C-1 6.34 -1 5.68 -1 5 C-1.66 5 -2.32 5 -3 5 C-3 4.34 -3 3.68 -3 3 C-2.01 3 -1.02 3 0 3 C0 2.01 0 1.02 0 0 Z " fill="#312EC2" transform="translate(97,73)"/>
<path d="M0 0 C2.72943537 -0.05416741 5.45778564 -0.09375225 8.1875 -0.125 C9.34088867 -0.15013672 9.34088867 -0.15013672 10.51757812 -0.17578125 C15.91483608 -0.22210964 19.95840979 0.08214253 24.0625 3.9375 C24.701875 4.618125 25.34125 5.29875 26 6 C26.721875 6.474375 27.44375 6.94875 28.1875 7.4375 C30.5266085 9.45397285 30.67504594 10.99417492 31 14 C28.19878575 12.89952297 27.01459083 12.01962216 25.1875 9.5625 C22.37482514 6.26765231 20.03104088 5.47288032 16 4 C16 3.01 16 2.02 16 1 C10.72 1 5.44 1 0 1 C0 0.67 0 0.34 0 0 Z " fill="#B195FA" transform="translate(53,78)"/>
<path d="M0 0 C0 1.32 0 2.64 0 4 C0.66 4 1.32 4 2 4 C2.33 3.34 2.66 2.68 3 2 C3 3.65 3 5.3 3 7 C-0.65316671 5.75023244 -1.78065836 5.32901247 -4 2 C-6.84753525 0.94595877 -9.53187834 0.88197215 -12.546875 0.90234375 C-13.39121094 0.90556641 -14.23554687 0.90878906 -15.10546875 0.91210938 C-15.97816406 0.92048828 -16.85085937 0.92886719 -17.75 0.9375 C-18.63816406 0.94201172 -19.52632812 0.94652344 -20.44140625 0.95117188 C-22.62767329 0.962926 -24.81380179 0.97935751 -27 1 C-26.67 0.34 -26.34 -0.32 -26 -1 C-17.11658631 -2.43804608 -8.73129266 -2.19643745 0 0 Z " fill="#433DF2" transform="translate(78,78)"/>
<path d="M0 0 C10.84981163 -0.32878217 20.50987598 -0.11367639 31 3 C27.62238092 4.12587303 25.43729336 3.75352077 22 3 C20.12665986 2.91079333 18.25045579 2.86983346 16.375 2.875 C15.43398437 2.87242188 14.49296875 2.86984375 13.5234375 2.8671875 C10.87322493 2.89452002 10.87322493 2.89452002 8 4 C8 3.01 8 2.02 8 1 C5.36 1 2.72 1 0 1 C0 0.67 0 0.34 0 0 Z " fill="#423BD6" transform="translate(53,60)"/>
<path d="M0 0 C2.31 0.33 4.62 0.66 7 1 C7 1.99 7 2.98 7 4 C4.69 4 2.38 4 0 4 C0 5.32 0 6.64 0 8 C-1.98 8.33 -3.96 8.66 -6 9 C-6 7.68 -6 6.36 -6 5 C-4.35 4.67 -2.7 4.34 -1 4 C-0.67 2.68 -0.34 1.36 0 0 Z " fill="#8AE116" transform="translate(45,15)"/>
<path d="M0 0 C-1.875 4.75 -1.875 4.75 -3 7 C-5.97 6.01 -8.94 5.02 -12 4 C-7.82050327 1.21366885 -5.06624674 0 0 0 Z " fill="#3933DC" transform="translate(46,62)"/>
<path d="M0 0 C1.32 0 2.64 0 4 0 C3.67 1.65 3.34 3.3 3 5 C3.99 4.67 4.98 4.34 6 4 C6.66 4.66 7.32 5.32 8 6 C7.360625 6.103125 6.72125 6.20625 6.0625 6.3125 C5.381875 6.539375 4.70125 6.76625 4 7 C3.67 7.99 3.34 8.98 3 10 C2.34 9.67 1.68 9.34 1 9 C1 8.34 1 7.68 1 7 C0.01 6.67 -0.98 6.34 -2 6 C-1.34 5.34 -0.68 4.68 0 4 C0 2.68 0 1.36 0 0 Z " fill="#2A269D" transform="translate(137,128)"/>
<path d="M0 0 C0.66 0 1.32 0 2 0 C2.33 0.99 2.66 1.98 3 3 C4.155 3.5775 5.31 4.155 6.5 4.75 C8.41015625 5.75 8.41015625 5.75 10 7 C10.9375 10.75 10.9375 10.75 11 14 C10.34 14 9.68 14 9 14 C8.67 12.68 8.34 11.36 8 10 C6.35 10 4.7 10 3 10 C3.33 9.34 3.66 8.68 4 8 C4.66 8.33 5.32 8.66 6 9 C5.566875 8.51789063 5.13375 8.03578125 4.6875 7.5390625 C4.130625 6.90742187 3.57375 6.27578125 3 5.625 C2.443125 4.99851562 1.88625 4.37203125 1.3125 3.7265625 C0 2 0 2 0 0 Z " fill="#3431DC" transform="translate(109,87)"/>
<path d="M0 0 C1.98 1.32 3.96 2.64 6 4 C5.67 5.65 5.34 7.3 5 9 C4.01 9 3.02 9 2 9 C2 8.34 2 7.68 2 7 C2.66 7 3.32 7 4 7 C4 6.01 4 5.02 4 4 C3.01 4 2.02 4 1 4 C1 4.99 1 5.98 1 7 C0.34 7 -0.32 7 -1 7 C-1 6.34 -1 5.68 -1 5 C-1.66 5 -2.32 5 -3 5 C-3 4.34 -3 3.68 -3 3 C-2.01 3 -1.02 3 0 3 C0 2.01 0 1.02 0 0 Z " fill="#1F19BE" transform="translate(97,73)"/>
<path d="M0 0 C0.33 0.99 0.66 1.98 1 3 C1.598125 3.268125 2.19625 3.53625 2.8125 3.8125 C5.93576046 5.50798425 7.18267347 8.01439213 9 11 C6.0280615 9.87548273 3.66559313 8.77706209 1 7 C1 6.01 1 5.02 1 4 C0.34 4 -0.32 4 -1 4 C-1.33 4.66 -1.66 5.32 -2 6 C-1.49396008 3.83125748 -1.00016187 2.00032373 0 0 Z " fill="#6462ED" transform="translate(110,83)"/>
<path d="M0 0 C2.97 0.495 2.97 0.495 6 1 C6 2.32 6 3.64 6 5 C5.01 5 4.02 5 3 5 C3.33 6.32 3.66 7.64 4 9 C2.68 8.34 1.36 7.68 0 7 C0 6.34 0 5.68 0 5 C0.66 5 1.32 5 2 5 C2 4.01 2 3.02 2 2 C1.34 2 0.68 2 0 2 C0 1.34 0 0.68 0 0 Z " fill="#9495F4" transform="translate(91,71)"/>
<path d="M0 0 C0.99 0.33 1.98 0.66 3 1 C3 1.33 3 1.66 3 2 C10.26 2.33 17.52 2.66 25 3 C25 3.33 25 3.66 25 4 C17.08 4 9.16 4 1 4 C0.67 2.68 0.34 1.36 0 0 Z " fill="#393197" transform="translate(137,119)"/>
<path d="M0 0 C4.95 0.33 9.9 0.66 15 1 C15 1.33 15 1.66 15 2 C10.71 2.66 6.42 3.32 2 4 C1.34 2.68 0.68 1.36 0 0 Z " fill="#463DE9" transform="translate(83,89)"/>
<path d="M0 0 C0.99 0 1.98 0 3 0 C3 0.99 3 1.98 3 3 C2.34 3 1.68 3 1 3 C1 3.66 1 4.32 1 5 C1.99 5 2.98 5 4 5 C4 5.66 4 6.32 4 7 C4.66 7 5.32 7 6 7 C6 7.66 6 8.32 6 9 C3.0280615 7.87548273 0.66559313 6.77706209 -2 5 C-2 4.34 -2 3.68 -2 3 C-1.34 3 -0.68 3 0 3 C0 2.01 0 1.02 0 0 Z " fill="#7976F4" transform="translate(98,77)"/>
<path d="M0 0 C7.50769231 -0.36923077 7.50769231 -0.36923077 10 1.5 C10.495 2.2425 10.495 2.2425 11 3 C10.34 3 9.68 3 9 3 C8.67 3.99 8.34 4.98 8 6 C7.01 5.01 6.02 4.02 5 3 C4.01 3.495 4.01 3.495 3 4 C2.01 3.34 1.02 2.68 0 2 C0 1.34 0 0.68 0 0 Z " fill="#3221F2" transform="translate(47,64)"/>
<path d="M0 0 C0 0.33 0 0.66 0 1 C-1.258125 1.185625 -2.51625 1.37125 -3.8125 1.5625 C-4.87404297 1.71912109 -4.87404297 1.71912109 -5.95703125 1.87890625 C-8 2 -8 2 -11 1 C-11 0.01 -11 -0.98 -11 -2 C-6.74891557 -3.87047715 -3.9091836 -1.87941519 0 0 Z " fill="#514DC7" transform="translate(38,155)"/>
<path d="M0 0 C0.639375 0.804375 1.27875 1.60875 1.9375 2.4375 C3.40603502 4.2750504 3.40603502 4.2750504 5 6 C5.04080783 7.99958364 5.04254356 10.00045254 5 12 C1.94063363 8.24532309 0 4.91886939 0 0 Z " fill="#BBF45C" transform="translate(0,107)"/>
<path d="M0 0 C2.475 0.495 2.475 0.495 5 1 C5.33 2.32 5.66 3.64 6 5 C3.03 4.505 3.03 4.505 0 4 C0 2.68 0 1.36 0 0 Z " fill="#8AE116" transform="translate(34,23)"/>
<path d="M0 0 C0.99 0.33 1.98 0.66 3 1 C2.34 2.65 1.68 4.3 1 6 C0.34 6 -0.32 6 -1 6 C-1 6.66 -1 7.32 -1 8 C-1.66 8 -2.32 8 -3 8 C-2.67 6.35 -2.34 4.7 -2 3 C-1.34 3 -0.68 3 0 3 C0 2.01 0 1.02 0 0 Z " fill="#29248D" transform="translate(135,123)"/>
<path d="M0 0 C0.66 0 1.32 0 2 0 C4 3 4 3 5 6 C3.68 6.33 2.36 6.66 1 7 C0.67 4.69 0.34 2.38 0 0 Z " fill="#3B38EF" transform="translate(120,102)"/>
<path d="M0 0 C0.33 1.98 0.66 3.96 1 6 C0.01 6 -0.98 6 -2 6 C-4.1875 3.5 -4.1875 3.5 -6 1 C-1.125 0 -1.125 0 0 0 Z " fill="#5248F2" transform="translate(118,96)"/>
<path d="M0 0 C2.97 0.495 2.97 0.495 6 1 C5.67 1.99 5.34 2.98 5 4 C3.35 4 1.7 4 0 4 C0 2.68 0 1.36 0 0 Z " fill="#8AE116" transform="translate(28,27)"/>
<path d="M0 0 C0.99 0 1.98 0 3 0 C3.33 2.31 3.66 4.62 4 7 C2.35 5.35 0.7 3.7 -1 2 C-0.67 1.34 -0.34 0.68 0 0 Z " fill="#7E7BF4" transform="translate(105,87)"/>
<path d="M0 0 C0.99 0 1.98 0 3 0 C3 0.99 3 1.98 3 3 C2.34 3 1.68 3 1 3 C1.33 3.99 1.66 4.98 2 6 C0 6 0 6 -1.625 4.5 C-2.07875 4.005 -2.5325 3.51 -3 3 C-2.67 2.34 -2.34 1.68 -2 1 C-1.34 1.33 -0.68 1.66 0 2 C0 1.34 0 0.68 0 0 Z " fill="#282DDB" transform="translate(90,73)"/>
<path d="M0 0 C1.32 0 2.64 0 4 0 C4 0.99 4 1.98 4 3 C2.02 3.66 0.04 4.32 -2 5 C-1.34 3.35 -0.68 1.7 0 0 Z " fill="#ACB2F3" transform="translate(85,68)"/>
<path d="M0 0 C1.65 0 3.3 0 5 0 C4.67 1.32 4.34 2.64 4 4 C2.68 3.67 1.36 3.34 0 3 C0 2.01 0 1.02 0 0 Z " fill="#8AE116" transform="translate(51,12)"/>
<path d="M0 0 C2.475 0.495 2.475 0.495 5 1 C5.33 1.99 5.66 2.98 6 4 C4.35 3.67 2.7 3.34 1 3 C0.67 2.01 0.34 1.02 0 0 Z " fill="#5E61F7" transform="translate(142,142)"/>
<path d="M0 0 C0.66 0 1.32 0 2 0 C2.33 0.99 2.66 1.98 3 3 C5.49759982 4.69882448 5.49759982 4.69882448 8 6 C7.34 6.66 6.68 7.32 6 8 C1.2 4.55384615 1.2 4.55384615 0.1875 1.75 C0.125625 1.1725 0.06375 0.595 0 0 Z " fill="#312AE6" transform="translate(109,87)"/>
<path d="M0 0 C0.99 0.33 1.98 0.66 3 1 C2.34 2.32 1.68 3.64 1 5 C0.01 4.67 -0.98 4.34 -2 4 C-1.34 2.68 -0.68 1.36 0 0 Z " fill="#2822F2" transform="translate(82,67)"/>
<path d="M0 0 C2.475 0.495 2.475 0.495 5 1 C4.67 1.99 4.34 2.98 4 4 C2.68 3.67 1.36 3.34 0 3 C0 2.01 0 1.02 0 0 Z " fill="#8AE116" transform="translate(24,31)"/>
<path d="M0 0 C-0.33 1.32 -0.66 2.64 -1 4 C-1.99 3.67 -2.98 3.34 -4 3 C-4 2.34 -4 1.68 -4 1 C-2 0 -2 0 0 0 Z " fill="#8AE116" transform="translate(64,9)"/>
<path d="M0 0 C1.98 0.495 1.98 0.495 4 1 C3.01 1.33 2.02 1.66 1 2 C1 2.66 1 3.32 1 4 C0.34 4 -0.32 4 -1 4 C-0.67 2.68 -0.34 1.36 0 0 Z " fill="#8AE116" transform="translate(66,7)"/>
<path d="M0 0 C0.99 0 1.98 0 3 0 C3 1.32 3 2.64 3 4 C2.01 3.67 1.02 3.34 0 3 C0 2.01 0 1.02 0 0 Z " fill="#4544C3" transform="translate(4,148)"/>
<path d="M0 0 C0.99 0 1.98 0 3 0 C3 0.66 3 1.32 3 2 C2.01 2 1.02 2 0 2 C0 1.34 0 0.68 0 0 Z " fill="#4544C3" transform="translate(67,134)"/>
<path d="M0 0 C0.99 0.495 0.99 0.495 2 1 C2 1.66 2 2.32 2 3 C1.34 3 0.68 3 0 3 C0 2.01 0 1.02 0 0 Z " fill="#715DFC" transform="translate(149,146)"/>
<path d="M0 0 C0.99 0.33 1.98 0.66 3 1 C2.01 1.33 1.02 1.66 0 2 C0 1.34 0 0.68 0 0 Z " fill="#8AE116" transform="translate(29,33)"/>
<path d="M0 0 C0.66 0 1.32 0 2 0 C2 0.66 2 1.32 2 2 C1.34 2 0.68 2 0 2 C0 1.34 0 0.68 0 0 Z " fill="#3B28FD" transform="translate(60,91)"/>
<path d="" fill="#4544C3" transform="translate(0,0)"/>
<path d="" fill="#8AE116" transform="translate(0,0)"/>
</svg>
