<?xml version="1.0" encoding="UTF-8"?>
<svg version="1.1" xmlns="http://www.w3.org/2000/svg" width="512" height="512">
<path d="M0 0 C0.5053125 0.44069824 1.010625 0.88139648 1.53125 1.33544922 C15.38432235 13.4974727 27.20630013 27.07450301 38 42 C38.4444043 42.61423828 38.88880859 43.22847656 39.34667969 43.86132812 C78.12558716 98.16968279 92.58823011 167.59975778 82.03515625 233.1484375 C75.88994419 268.9043579 62.63454364 305.55298227 41 335 C40.56751953 335.59796387 40.13503906 336.19592773 39.68945312 336.81201172 C24.60501234 357.63329916 7.54916521 377.4752316 -13.2890625 392.73779297 C-15.05638875 394.04159958 -16.79439123 395.37859038 -18.53125 396.72265625 C-28.15838212 404.08946009 -38.36372591 410.20504869 -49 416 C-49.6604834 416.3619043 -50.3209668 416.72380859 -51.00146484 417.09667969 C-73.39207217 429.21695146 -97.39867824 437.07600025 -122.25 442.25 C-122.96841064 442.40130371 -123.68682129 442.55260742 -124.42700195 442.70849609 C-139.75623293 445.70096756 -155.11335393 446.37689461 -170.6875 446.3125 C-171.60753815 446.31067719 -172.52757629 446.30885437 -173.47549438 446.30697632 C-187.5222725 446.26022226 -201.17551184 445.6643559 -215 443 C-215.89992676 442.83902832 -216.79985352 442.67805664 -217.72705078 442.51220703 C-241.12736914 438.27646865 -263.69782715 430.52950392 -285 420 C-285.74427246 419.63406738 -286.48854492 419.26813477 -287.25537109 418.89111328 C-313.89163066 405.65189276 -341.0094624 386.21452183 -360.15234375 363.21484375 C-361.6091308 361.46854723 -363.11119359 359.76002023 -364.62890625 358.06640625 C-395.26146904 323.73285484 -415.05160674 280.13963293 -423 235 C-423.16081055 234.16243164 -423.32162109 233.32486328 -423.48730469 232.46191406 C-430.15861189 197.0145766 -427.02639384 158.67590896 -418 124 C-417.79036621 123.18144531 -417.58073242 122.36289063 -417.36474609 121.51953125 C-408.57930381 87.9197797 -391.7942888 56.89576677 -370 30 C-369.55462891 29.45021484 -369.10925781 28.90042969 -368.65039062 28.33398438 C-357.43397759 14.61800397 -345.05742931 1.81498576 -331 -9 C-330.04480469 -9.77214844 -329.08960938 -10.54429688 -328.10546875 -11.33984375 C-246.57973163 -76.25278916 -126.19282373 -83.07020999 0 0 Z " fill="#FEFEFE" transform="translate(427,65)"/>
<path d="M0 0 C0.5053125 0.44069824 1.010625 0.88139648 1.53125 1.33544922 C13.63897617 11.96518147 24.93811247 23.62961814 34 37 C34 37.33 34 37.66 34 38 C32.2052549 38.03425331 32.2052549 38.03425331 30.37425232 38.06919861 C18.9494212 38.2875134 7.5246338 38.50800695 -3.90011692 38.73049068 C-9.76989887 38.84473168 -15.63969237 38.95827492 -21.50952148 39.07006836 C-28.29935927 39.19950177 -35.08915196 39.33110177 -41.87890625 39.46484375 C-42.98794878 39.48665144 -44.09699131 39.50845913 -45.23964119 39.53092766 C-58.23639123 39.78911888 -71.22757795 40.10240833 -84.21875 40.5625 C-97.12955943 41.01920582 -110.01973451 41.11924609 -122.9375 41.0625 C-125.01236866 41.05745403 -127.08723857 41.05289682 -129.16210938 41.04882812 C-134.10810544 41.03811525 -139.05403754 41.02103838 -144 41 C-144.05664322 41.62235535 -144.11328644 42.24471069 -144.17164612 42.88592529 C-144.7035485 48.49155459 -145.40795396 54.02603114 -146.33984375 59.578125 C-146.46686172 60.35202576 -146.5938797 61.12592651 -146.7247467 61.92327881 C-147.12606287 64.36601402 -147.53147793 66.80804299 -147.9375 69.25 C-148.46938626 72.46322443 -148.99927463 75.67677108 -149.52734375 78.890625 C-149.65781601 79.68374588 -149.78828827 80.47686676 -149.92271423 81.29402161 C-150.63855067 85.67800382 -151.30316953 90.06362489 -151.90625 94.46484375 C-153.3552345 104.82325586 -155.17089554 115.12504973 -156.909729 125.43786621 C-160.60247117 147.35676835 -164.18867688 169.28918462 -167.625 191.25 C-170.47985231 209.4902243 -173.42499809 227.71121606 -176.49130249 245.91705322 C-179.44915204 263.49677699 -182.24094428 281.10021248 -184.99932861 298.71221924 C-188.20663315 319.17198531 -191.55744613 339.60535725 -194.99389648 360.02783203 C-195.34757517 362.13052012 -195.70117448 364.23322156 -196.0546875 366.3359375 C-196.22188797 367.33033844 -196.38908844 368.32473938 -196.56135559 369.34927368 C-198.10387156 378.55637355 -199.56681353 387.77531649 -201 397 C-203.49775673 393.90015097 -205.21935138 390.73251288 -206.93359375 387.14453125 C-207.49353027 385.97825195 -208.0534668 384.81197266 -208.63037109 383.61035156 C-209.23280469 382.34442831 -209.83517945 381.07847705 -210.4375 379.8125 C-211.06810188 378.49556691 -211.69912993 377.17883781 -212.33056641 375.86230469 C-213.9272707 372.53106538 -215.51931005 369.19762057 -217.11016846 365.86358643 C-219.35810469 361.15570269 -221.61759502 356.45334818 -223.875 351.75 C-224.35122803 350.75653564 -224.82745605 349.76307129 -225.31811523 348.73950195 C-229.51988598 339.98057996 -233.75793181 331.23944834 -238 322.5 C-243.20654124 311.77355804 -248.39477586 301.03883114 -253.54492188 290.28515625 C-256.25553879 284.62725191 -258.97696734 278.97477097 -261.7109375 273.328125 C-262.02652618 272.67596008 -262.34211487 272.02379517 -262.66726685 271.35186768 C-264.20374892 268.17679601 -265.74152905 265.00236687 -267.28173828 261.82910156 C-270.29840207 255.59670037 -273.23316717 249.34744003 -276 243 C-281.95408432 244.86584689 -287.60774465 247.04522648 -293.25 249.703125 C-294.01286316 250.05748627 -294.77572632 250.41184753 -295.56170654 250.77694702 C-297.19457396 251.5360018 -298.82644884 252.29719487 -300.45739746 253.06036377 C-303.93748095 254.68862983 -307.42252413 256.30614591 -310.90740967 257.92410278 C-312.69120776 258.75228456 -314.47477638 259.58096077 -316.25811768 260.41012573 C-324.40142165 264.19426108 -332.57078517 267.91926325 -340.75 271.625 C-343.41159147 272.83173781 -346.07302044 274.03883357 -348.734375 275.24609375 C-349.72661072 275.69611504 -349.72661072 275.69611504 -350.7388916 276.15522766 C-360.65169513 280.65374791 -370.54735528 285.18994684 -380.44433594 289.72314453 C-384.29435807 291.48620364 -388.14695404 293.24355963 -392 295 C-392.96421875 295.4429541 -393.9284375 295.8859082 -394.921875 296.34228516 C-400.77047744 299 -400.77047744 299 -403 299 C-412.21617537 278.26958995 -418.86605968 257.31939607 -423 235 C-423.16516113 234.15083008 -423.33032227 233.30166016 -423.50048828 232.42675781 C-430.15917235 196.99181651 -427.02253401 158.66108098 -418 124 C-417.79036621 123.18144531 -417.58073242 122.36289063 -417.36474609 121.51953125 C-408.57930381 87.9197797 -391.7942888 56.89576677 -370 30 C-369.55462891 29.45021484 -369.10925781 28.90042969 -368.65039062 28.33398438 C-357.43397759 14.61800397 -345.05742931 1.81498576 -331 -9 C-330.04480469 -9.77214844 -329.08960938 -10.54429688 -328.10546875 -11.33984375 C-246.57973163 -76.25278916 -126.19282373 -83.07020999 0 0 Z " fill="#FEFEFE" transform="translate(427,65)"/>
<path d="M0 0 C8.4610869 -0.02361592 16.92215907 -0.04115706 25.38327122 -0.05181217 C29.31599183 -0.05693702 33.24868923 -0.06383392 37.18139648 -0.07543945 C53.97775467 -0.12364057 70.73388572 -0.02298501 87.52101135 0.61338806 C98.30154277 0.99934801 109.07634481 1.112604 119.86308479 1.1934185 C125.96413973 1.24420407 132.06492483 1.32147774 138.16570377 1.3980093 C143.39998927 1.46149232 148.63349443 1.50786129 153.86816406 1.52148438 C159.02712546 1.53584246 164.18398427 1.59343701 169.34220886 1.68067932 C171.28446121 1.70583816 173.22698452 1.71542729 175.16938782 1.70860291 C190.20216538 1.66813573 190.20216538 1.66813573 194.77124023 5.05297852 C199 10.36722348 199 10.36722348 199 13 C197.80350327 13.02283554 196.60700653 13.04567108 195.37425232 13.06919861 C183.9494212 13.2875134 172.5246338 13.50800695 161.09988308 13.73049068 C155.23010113 13.84473168 149.36030763 13.95827492 143.49047852 14.07006836 C136.70064073 14.19950177 129.91084804 14.33110177 123.12109375 14.46484375 C122.01205122 14.48665144 120.90300869 14.50845913 119.76035881 14.53092766 C106.76360877 14.78911888 93.77242205 15.10240833 80.78125 15.5625 C67.87044057 16.01920582 54.98026549 16.11924609 42.0625 16.0625 C39.98763134 16.05745403 37.91276143 16.05289682 35.83789062 16.04882812 C30.89189456 16.03811525 25.94596246 16.02103838 21 16 C20.94335678 16.62235535 20.88671356 17.24471069 20.82835388 17.88592529 C20.2964515 23.49155459 19.59204604 29.02603114 18.66015625 34.578125 C18.53313828 35.35202576 18.4061203 36.12592651 18.2752533 36.92327881 C17.87393713 39.36601402 17.46852207 41.80804299 17.0625 44.25 C16.53061374 47.46322443 16.00072537 50.67677108 15.47265625 53.890625 C15.34218399 54.68374588 15.21171173 55.47686676 15.07728577 56.29402161 C14.36144933 60.67800382 13.69683047 65.06362489 13.09375 69.46484375 C11.6447655 79.82325586 9.82910446 90.12504973 8.090271 100.43786621 C4.39752883 122.35676835 0.81132312 144.28918462 -2.625 166.25 C-5.47985231 184.4902243 -8.42499809 202.71121606 -11.49130249 220.91705322 C-14.44915204 238.49677699 -17.24094428 256.10021248 -19.99932861 273.71221924 C-23.20663315 294.17198531 -26.55744613 314.60535725 -29.99389648 335.02783203 C-30.34757517 337.13052012 -30.70117448 339.23322156 -31.0546875 341.3359375 C-31.22188797 342.33033844 -31.38908844 343.32473938 -31.56135559 344.34927368 C-33.10387156 353.55637355 -34.56681353 362.77531649 -36 372 C-38.49775673 368.90015097 -40.21935138 365.73251288 -41.93359375 362.14453125 C-42.49353027 360.97825195 -43.0534668 359.81197266 -43.63037109 358.61035156 C-44.23280469 357.34442831 -44.83517945 356.07847705 -45.4375 354.8125 C-46.06810188 353.49556691 -46.69912993 352.17883781 -47.33056641 350.86230469 C-48.9272707 347.53106538 -50.51931005 344.19762057 -52.11016846 340.86358643 C-54.35810469 336.15570269 -56.61759502 331.45334818 -58.875 326.75 C-59.35122803 325.75653564 -59.82745605 324.76307129 -60.31811523 323.73950195 C-64.51988598 314.98057996 -68.75793181 306.23944834 -73 297.5 C-78.20654124 286.77355804 -83.39477586 276.03883114 -88.54492188 265.28515625 C-91.25553879 259.62725191 -93.97696734 253.97477097 -96.7109375 248.328125 C-97.02652618 247.67596008 -97.34211487 247.02379517 -97.66726685 246.35186768 C-99.20374892 243.17679601 -100.74152905 240.00236687 -102.28173828 236.82910156 C-105.29840207 230.59670037 -108.23316717 224.34744003 -111 218 C-116.95408432 219.86584689 -122.60774465 222.04522648 -128.25 224.703125 C-129.39429474 225.2346669 -129.39429474 225.2346669 -130.56170654 225.77694702 C-132.19457396 226.5360018 -133.82644884 227.29719487 -135.45739746 228.06036377 C-138.93748095 229.68862983 -142.42252413 231.30614591 -145.90740967 232.92410278 C-147.69120776 233.75228456 -149.47477638 234.58096077 -151.25811768 235.41012573 C-159.40142165 239.19426108 -167.57078517 242.91926325 -175.75 246.625 C-178.41159147 247.83173781 -181.07302044 249.03883357 -183.734375 250.24609375 C-184.39586548 250.54610794 -185.05735596 250.84612213 -185.7388916 251.15522766 C-195.65169513 255.65374791 -205.54735528 260.18994684 -215.44433594 264.72314453 C-219.29435807 266.48620364 -223.14695404 268.24355963 -227 270 C-227.96421875 270.4429541 -228.9284375 270.8859082 -229.921875 271.34228516 C-235.77047744 274 -235.77047744 274 -238 274 C-238.67119549 272.5437455 -239.33681807 271.08492133 -240 269.625 C-240.37125 268.81289063 -240.7425 268.00078125 -241.125 267.1640625 C-242 265 -242 265 -242 263 C-241.45923828 262.7097998 -240.91847656 262.41959961 -240.36132812 262.12060547 C-228.50481773 255.7426377 -216.78276377 249.17980713 -205.17773438 242.35498047 C-198.00196957 238.14376975 -190.77079726 234.04467443 -183.5 230 C-175.27791303 225.42444085 -167.11425396 220.76417402 -159 216 C-149.79357689 210.59601632 -140.51902175 205.32846072 -131.19067383 200.13793945 C-126.07308196 197.28854131 -120.97022113 194.41859057 -115.8984375 191.48828125 C-114.93510498 190.93221191 -113.97177246 190.37614258 -112.97924805 189.80322266 C-111.16579097 188.75368537 -109.35461456 187.70019389 -107.54614258 186.64208984 C-106.74072021 186.17625488 -105.93529785 185.71041992 -105.10546875 185.23046875 C-104.40574951 184.82207764 -103.70603027 184.41368652 -102.98510742 183.99291992 C-100.99672114 182.99835996 -99.17102908 182.44904214 -97 182 C-86.1494903 203.38902391 -75.77969005 225.02200568 -65.73291016 246.79882812 C-60.28423236 258.59496967 -54.65858335 270.30322832 -49 282 C-46.28717719 272.35236286 -44.68092857 262.61008154 -43.12600708 252.72375488 C-42.36867452 247.91169679 -41.59318188 243.10255139 -40.8203125 238.29296875 C-40.58783562 236.84200302 -40.58783562 236.84200302 -40.35066223 235.36172485 C-38.97842443 226.81442143 -37.53742655 218.28010749 -36.0625 209.75 C-35.82036912 208.34725362 -35.57826329 206.94450292 -35.33618164 205.54174805 C-34.9607762 203.36701908 -34.58527362 201.19230717 -34.20942688 199.01765442 C-32.49633072 189.0982285 -30.81240593 179.1738214 -29.125 169.25 C-28.78395408 167.24511404 -28.44288955 165.24023124 -28.10180664 163.23535156 C-27.41185718 159.17970271 -26.72200804 155.12403681 -26.03222656 151.06835938 C-24.52156575 142.18668491 -23.00960183 133.30523227 -21.49771118 124.42376709 C-20.66640652 119.54033008 -19.83514814 114.65688519 -19.00390625 109.7734375 C-18.75670082 108.32114243 -18.75670082 108.32114243 -18.50450134 106.83950806 C-17.15457976 98.90868273 -15.80511842 90.97777912 -14.45574951 83.04685974 C-13.12718077 75.23862513 -11.79751214 67.4305781 -10.46759033 59.62257385 C-9.47798566 53.81125796 -8.49042519 47.99959868 -7.50434875 42.18768311 C-6.86410059 38.41540478 -6.22270201 34.6433226 -5.58108521 30.87127686 C-5.28163494 29.10919888 -4.9826888 27.34703513 -4.68429565 25.58477783 C-4.27264088 23.15394505 -3.85917149 20.72342709 -3.4453125 18.29296875 C-3.32794235 17.59712173 -3.2105722 16.90127472 -3.08964539 16.18434143 C-2.16445762 10.76801173 -1.09804161 5.38374886 0 0 Z " fill="#20D4E5" transform="translate(262,90)"/>
</svg>
